<svg xmlns="http://www.w3.org/2000/svg" width="1600" height="900" viewBox="0 0 1600 900" role="img" aria-label="ReadArc macOS PDF reader interface">
  <defs>
    <linearGradient id="bg" x1="0" y1="0" x2="1" y2="1">
      <stop offset="0" stop-color="#070b10"/>
      <stop offset="0.55" stop-color="#101820"/>
      <stop offset="1" stop-color="#07110d"/>
    </linearGradient>
    <linearGradient id="page" x1="0" y1="0" x2="1" y2="1">
      <stop offset="0" stop-color="#fffdf7"/>
      <stop offset="1" stop-color="#f2f4f0"/>
    </linearGradient>
    <linearGradient id="accent" x1="0" y1="0" x2="1" y2="1">
      <stop offset="0" stop-color="#a8f36a"/>
      <stop offset="1" stop-color="#5bd5a0"/>
    </linearGradient>
    <filter id="shadow" x="-10%" y="-14%" width="120%" height="132%">
      <feDropShadow dx="0" dy="30" stdDeviation="34" flood-color="#000" flood-opacity="0.48"/>
    </filter>
  </defs>

  <rect width="1600" height="900" fill="url(#bg)"/>
  <path d="M0 720 C210 590 370 680 520 770 C740 900 890 650 1100 740 C1270 812 1400 840 1600 690 V900 H0Z" fill="#12352d" opacity="0.58"/>
  <path d="M1030 0 C1210 95 1260 192 1418 210 C1490 218 1548 196 1600 164 V0Z" fill="#7ee3a1" opacity="0.72"/>
  <path d="M0 0 H520 L360 72 H0Z" fill="#1b3150" opacity="0.82"/>

  <g filter="url(#shadow)">
    <rect x="64" y="70" width="1472" height="760" rx="28" fill="#0b1015" stroke="#3a424b"/>
    <rect x="64" y="70" width="1472" height="72" rx="28" fill="#20252c"/>
    <rect x="64" y="112" width="1472" height="30" fill="#20252c"/>

    <circle cx="100" cy="106" r="9" fill="#ff5f57"/>
    <circle cx="128" cy="106" r="9" fill="#febc2e"/>
    <circle cx="156" cy="106" r="9" fill="#28c840"/>

    <rect x="210" y="88" width="44" height="38" rx="11" fill="#2c333c"/>
    <path d="M238 98 L226 107 L238 116" fill="none" stroke="#cad2dd" stroke-width="3" stroke-linecap="round" stroke-linejoin="round"/>
    <rect x="264" y="88" width="44" height="38" rx="11" fill="#2c333c"/>
    <path d="M280 98 L292 107 L280 116" fill="none" stroke="#cad2dd" stroke-width="3" stroke-linecap="round" stroke-linejoin="round"/>
    <rect x="326" y="88" width="112" height="38" rx="11" fill="#2c333c"/>
    <text x="382" y="112" text-anchor="middle" font-family="-apple-system,BlinkMacSystemFont,Segoe UI,sans-serif" font-size="15" font-weight="700" fill="#d8dee7">1 / 38</text>

    <rect x="602" y="88" width="54" height="38" rx="11" fill="#2c333c"/>
    <circle cx="629" cy="107" r="8" fill="none" stroke="#9da7b4" stroke-width="2"/>
    <path d="M635 113 L642 120" stroke="#9da7b4" stroke-width="2" stroke-linecap="round"/>
    <rect x="674" y="88" width="92" height="38" rx="11" fill="#2c333c"/>
    <text x="720" y="112" text-anchor="middle" font-family="-apple-system,BlinkMacSystemFont,Segoe UI,sans-serif" font-size="15" font-weight="700" fill="#d8dee7">135%</text>
    <rect x="784" y="88" width="54" height="38" rx="11" fill="#2c333c"/>
    <circle cx="811" cy="107" r="8" fill="none" stroke="#9da7b4" stroke-width="2"/>
    <path d="M805 107 H817 M811 101 V113" stroke="#9da7b4" stroke-width="2" stroke-linecap="round"/>

    <rect x="1088" y="88" width="222" height="38" rx="11" fill="#171d23" stroke="#343c45"/>
    <circle cx="1114" cy="107" r="7" fill="none" stroke="#8893a0" stroke-width="2"/>
    <path d="M1119 112 L1126 119" stroke="#8893a0" stroke-width="2" stroke-linecap="round"/>
    <text x="1160" y="112" font-family="-apple-system,BlinkMacSystemFont,Segoe UI,sans-serif" font-size="13" fill="#7f8995">Search</text>
    <rect x="1340" y="88" width="44" height="38" rx="11" fill="#2c333c"/>
    <rect x="1400" y="88" width="44" height="38" rx="11" fill="#2c333c"/>
    <path d="M1414 104 H1430 M1422 96 V112" stroke="#9ff06c" stroke-width="3" stroke-linecap="round"/>
    <rect x="1458" y="88" width="44" height="38" rx="11" fill="#2c333c"/>

    <rect x="64" y="142" width="78" height="688" fill="#10161c"/>
    <rect x="88" y="182" width="38" height="38" rx="12" fill="#162b18" stroke="#3f6d42"/>
    <path d="M96 197 H116 M96 207 H110" stroke="#a8f36a" stroke-width="3" stroke-linecap="round"/>
    <rect x="88" y="246" width="38" height="38" rx="12" fill="#132018" stroke="#3f6d42"/>
    <path d="M98 259 H118 V274 H98Z" fill="none" stroke="#a8f36a" stroke-width="2.5" stroke-linejoin="round"/>
    <rect x="88" y="310" width="38" height="38" rx="12" fill="#111820"/>
    <circle cx="105" cy="327" r="8" fill="none" stroke="#b5bfca" stroke-width="2.5"/>
    <path d="M111 333 L119 341" stroke="#b5bfca" stroke-width="2.5" stroke-linecap="round"/>
    <rect x="88" y="374" width="38" height="38" rx="12" fill="#111820"/>
    <rect x="99" y="386" width="16" height="18" rx="2" fill="none" stroke="#b5bfca" stroke-width="2.5"/>
    <rect x="88" y="728" width="38" height="38" rx="12" fill="#111820"/>
    <path d="M98 747 H118 M107 737 V757" stroke="#b5bfca" stroke-width="2.5" stroke-linecap="round"/>

    <rect x="142" y="142" width="194" height="688" fill="#05080b"/>
    <g font-family="-apple-system,BlinkMacSystemFont,Segoe UI,sans-serif" text-anchor="middle">
      <rect x="180" y="178" width="118" height="160" rx="8" fill="#fbfcff" stroke="#a8f36a" stroke-width="4"/>
      <rect x="198" y="204" width="82" height="96" rx="4" fill="#e7edf5"/>
      <rect x="204" y="214" width="56" height="7" rx="3.5" fill="#f55d42"/>
      <rect x="204" y="234" width="68" height="7" rx="3.5" fill="#153251"/>
      <rect x="204" y="254" width="60" height="7" rx="3.5" fill="#a8f36a"/>
      <text x="239" y="366" font-size="17" font-weight="700" fill="#d8dee7">1</text>

      <rect x="184" y="410" width="110" height="150" rx="8" fill="#fbfcff"/>
      <rect x="202" y="434" width="74" height="86" rx="4" fill="#dce6ef"/>
      <rect x="208" y="448" width="58" height="6" rx="3" fill="#153251" opacity="0.8"/>
      <rect x="208" y="466" width="48" height="6" rx="3" fill="#f55d42" opacity="0.75"/>
      <text x="239" y="590" font-size="17" font-weight="700" fill="#d8dee7">2</text>

      <rect x="184" y="624" width="110" height="150" rx="8" fill="#fbfcff"/>
      <rect x="202" y="650" width="74" height="92" rx="4" fill="#f3f1e8"/>
      <text x="239" y="802" font-size="17" font-weight="700" fill="#d8dee7">3</text>
    </g>

    <rect x="336" y="142" width="756" height="688" fill="#080b0f"/>
    <rect x="380" y="174" width="668" height="626" rx="4" fill="url(#page)"/>
    <text x="478" y="248" font-family="Georgia,Times New Roman,serif" font-size="30" font-weight="700" fill="#10233e">Research Brief</text>
    <rect x="478" y="292" width="468" height="9" rx="4.5" fill="#24344a" opacity="0.52"/>
    <rect x="478" y="318" width="410" height="9" rx="4.5" fill="#24344a" opacity="0.30"/>
    <rect x="478" y="344" width="360" height="9" rx="4.5" fill="#24344a" opacity="0.30"/>
    <rect x="520" y="430" width="220" height="160" rx="16" fill="#edf8ef" stroke="#98df9c" stroke-width="2"/>
    <rect x="780" y="430" width="220" height="160" rx="16" fill="#edf4ff" stroke="#91bcff" stroke-width="2"/>
    <rect x="556" y="462" width="140" height="24" rx="5" fill="#fff" stroke="#98a6b6"/>
    <rect x="556" y="508" width="140" height="24" rx="5" fill="#fff" stroke="#98a6b6"/>
    <rect x="556" y="554" width="140" height="24" rx="5" fill="#fff" stroke="#98a6b6"/>
    <rect x="816" y="462" width="140" height="24" rx="5" fill="#fff" stroke="#98a6b6"/>
    <rect x="816" y="508" width="140" height="24" rx="5" fill="#fff" stroke="#98a6b6"/>
    <rect x="816" y="554" width="140" height="24" rx="5" fill="#fff" stroke="#98a6b6"/>
    <path d="M696 474 C748 474 764 474 816 474 M696 566 C748 566 764 566 816 566" fill="none" stroke="#5b6875" stroke-width="2"/>
    <rect x="478" y="676" width="434" height="9" rx="4.5" fill="#24344a" opacity="0.34"/>
    <rect x="478" y="704" width="360" height="9" rx="4.5" fill="#24344a" opacity="0.24"/>

    <rect x="1092" y="142" width="444" height="688" fill="#11171d"/>
    <rect x="1124" y="176" width="330" height="36" rx="11" fill="#242b34"/>
    <rect x="1130" y="182" width="86" height="24" rx="8" fill="#a8f36a"/>
    <text x="1173" y="199" text-anchor="middle" font-family="-apple-system,BlinkMacSystemFont,Segoe UI,sans-serif" font-size="13" font-weight="800" fill="#102015">Chat</text>
    <text x="1288" y="199" text-anchor="middle" font-family="-apple-system,BlinkMacSystemFont,Segoe UI,sans-serif" font-size="13" font-weight="700" fill="#cbd3dd">Focus</text>
    <text x="1396" y="199" text-anchor="middle" font-family="-apple-system,BlinkMacSystemFont,Segoe UI,sans-serif" font-size="13" font-weight="700" fill="#cbd3dd">Research</text>

    <rect x="1124" y="244" width="360" height="88" rx="16" fill="#20262e" stroke="#303944"/>
    <rect x="1142" y="262" width="112" height="28" rx="8" fill="#a8f36a"/>
    <text x="1198" y="282" text-anchor="middle" font-family="-apple-system,BlinkMacSystemFont,Segoe UI,sans-serif" font-size="14" font-weight="800" fill="#102015">Codex</text>
    <rect x="1262" y="262" width="136" height="28" rx="8" fill="#343b45"/>
    <text x="1330" y="282" text-anchor="middle" font-family="-apple-system,BlinkMacSystemFont,Segoe UI,sans-serif" font-size="14" font-weight="700" fill="#dbe2ea">Claude Code</text>
    <circle cx="1152" cy="310" r="7" fill="#62d98c"/>
    <path d="M1148 310 L1151 313 L1157 306" fill="none" stroke="#102015" stroke-width="2" stroke-linecap="round" stroke-linejoin="round"/>
    <text x="1170" y="315" font-family="-apple-system,BlinkMacSystemFont,Segoe UI,sans-serif" font-size="12" font-weight="700" fill="#8feaa9">Available</text>
    <text x="1450" y="315" text-anchor="end" font-family="-apple-system,BlinkMacSystemFont,Segoe UI,sans-serif" font-size="12" font-weight="800" fill="#8feaa9">PDF</text>

    <rect x="1124" y="362" width="360" height="116" rx="16" fill="#20262e" stroke="#303944"/>
    <text x="1142" y="390" font-family="-apple-system,BlinkMacSystemFont,Segoe UI,sans-serif" font-size="12" font-weight="800" fill="#8b96a3">CONTEXT</text>
    <text x="1450" y="390" text-anchor="end" font-family="-apple-system,BlinkMacSystemFont,Segoe UI,sans-serif" font-size="12" font-weight="800" fill="#8feaa9">ATTACHED</text>
    <rect x="1142" y="414" width="250" height="8" rx="4" fill="#707b89"/>
    <rect x="1142" y="438" width="292" height="8" rx="4" fill="#4b5562"/>

    <rect x="1160" y="520" width="270" height="102" rx="16" fill="#252c35" stroke="#3a424d"/>
    <text x="1182" y="552" font-family="-apple-system,BlinkMacSystemFont,Segoe UI,sans-serif" font-size="13" font-weight="800" fill="#8b96a3">ReadArc</text>
    <rect x="1182" y="576" width="210" height="8" rx="4" fill="#c6d0db" opacity="0.75"/>
    <rect x="1182" y="598" width="178" height="8" rx="4" fill="#c6d0db" opacity="0.52"/>

    <rect x="1124" y="736" width="304" height="52" rx="15" fill="#20262e" stroke="#303944"/>
    <rect x="1150" y="758" width="142" height="8" rx="4" fill="#778390"/>
    <circle cx="1458" cy="762" r="18" fill="url(#accent)"/>
    <path d="M1458 774 V750 M1450 758 L1458 750 L1466 758" fill="none" stroke="#102015" stroke-width="3" stroke-linecap="round" stroke-linejoin="round"/>
  </g>
</svg>
